# xmcd
#
# Track frame offsets:
#	150
#	22197
#	39107
#	52022
#	69569
#	80047
#	98141
#	135378
#	152650
#	165849
#	180371
#	194460
#	208370
#
# Disc length: 2953 seconds
#
# Revision: 1
# Processed by: cddbd v1.5.1PL2 Copyright (c) Steve Scherf et al.
# Submitted via: audiograbber 1.83.01
#
DISCID=aa0b870d
DTITLE=Lazy Poker - The Real deal
DYEAR=2004
DGENRE=Blues
TTITLE0=Gypsy's Curse
TTITLE1=I Know My Baby
TTITLE2=Pink Thunderbird
TTITLE3=Back Door Game
TTITLE4=Ain't No Sunshine
TTITLE5=All You've Got Is The Blues
TTITLE6=Heart Full Of Doubt
TTITLE7=Rise Up With The Blues
TTITLE8=Swing Thing
TTITLE9=Don't Mess Around With Me
TTITLE10=Too Much Pork In My Stew
TTITLE11=The Real Deal
TTITLE12=C U Later
EXTD=
EXTT0=
EXTT1=
EXTT2=
EXTT3=
EXTT4=
EXTT5=
EXTT6=
EXTT7=
EXTT8=
EXTT9=
EXTT10=
EXTT11=
EXTT12=
PLAYORDER=
